<svg width="234" height="297" viewBox="0 0 234 297" fill="none" xmlns="http://www.w3.org/2000/svg">
<line x1="2.12102" y1="293.315" x2="68.121" y2="112.315" stroke="#007CED" stroke-width="4"/>
<line x1="132.255" y1="294.577" x2="70.8024" y2="109.739" stroke="#007CED" stroke-width="10"/>
<line x1="30" y1="212" x2="106" y2="212" stroke="#007CED" stroke-width="4"/>
<line x1="18.1362" y1="177.275" x2="76.1362" y2="28.2745" stroke="#007CED" stroke-width="4"/>
<line x1="166.702" y1="290.567" x2="79.249" y2="25.5668" stroke="#007CED" stroke-width="10"/>
<line x1="68" y1="175" x2="128" y2="175" stroke="#007CED" stroke-width="4"/>
<path d="M124.088 20.1217C124.166 20.1991 124.376 20.749 124.719 21.7715C125.296 23.6461 125.493 25.3896 125.31 27.0021L125.103 28.0023L126.243 28.8605L127.361 29.649L127.571 30.2764C127.712 30.6947 127.736 30.9969 127.643 31.1831L127.504 31.4624L123.042 32.9588L118.581 34.4552L118.301 34.3162L118.022 34.1772L117.578 32.8527L117.134 31.5281L117.273 31.2488C117.365 31.0627 117.644 30.8916 118.109 30.7358C120.959 29.5214 122.265 27.403 122.027 24.3807C121.87 23.2959 121.464 22.01 120.81 20.5231C120.717 20.3993 120.655 20.2909 120.624 20.1979C119.333 18.0456 117.712 17.2193 115.759 17.719C114.334 18.0936 113.437 19.1184 113.068 20.7932C112.883 21.6306 112.933 23.2427 113.216 25.6294C113.499 27.706 113.625 28.8529 113.595 29.07C113.864 32.3403 112.97 35.1477 110.913 37.4922C110.758 37.6475 110.627 37.795 110.519 37.9347C109.389 39.0374 108.228 39.8146 107.035 40.2663C104.324 41.279 101.844 41.3611 99.5949 40.5127C97.8577 39.9578 96.3287 38.7903 95.0078 37.0101C93.1586 34.5798 92.1538 31.8922 91.9933 28.9472C91.9596 27.4591 92.151 26.1799 92.5675 25.1096L92.6598 24.6908L91.2629 23.7634C89.9746 22.8512 89.2915 22.2789 89.2136 22.0465C89.0733 21.6282 89.0495 21.326 89.1421 21.1398L89.2811 20.8605L94.5793 19.0835C98.3438 17.821 100.335 17.2825 100.552 17.4681C100.63 17.5455 100.817 18.0257 101.113 18.9087C101.44 19.8847 101.503 20.4581 101.302 20.629C101.225 20.7066 100.992 20.8621 100.605 21.0953C95.6197 24.2668 94.2861 28.1524 96.6043 32.752C97.6937 35.0752 99.2924 36.2193 101.401 36.1844C101.711 36.1839 102.191 36.0745 102.842 35.8562C103.492 35.638 103.941 35.4357 104.189 35.2492C105.025 34.6586 105.636 33.7041 106.021 32.3858C106.283 31.4707 106.264 29.7966 105.965 27.3634C105.557 24.605 105.468 22.5667 105.698 21.2486C105.851 20.0083 106.189 18.8605 106.714 17.8055C107.178 16.8745 107.796 16.0208 108.57 15.2443C109.39 14.4522 110.327 13.8537 111.38 13.4487C112.759 12.9346 114.301 12.7535 116.006 12.9053C116.983 13.043 117.844 13.2972 118.589 13.6679C120.652 14.5786 122.361 16.4356 123.714 19.2389C123.839 19.4556 123.963 19.7499 124.088 20.1217ZM134.413 51.1363C136.327 55.1476 136.435 59.325 134.738 63.6685C134.568 64.0874 134.391 64.483 134.205 64.8554C133.742 65.7863 133.418 66.3605 133.232 66.5778C130.388 70.8925 126.447 73.4808 121.411 74.3427C121.163 74.3741 120.915 74.4056 120.667 74.4371C116.064 75.0501 111.947 73.8719 108.314 70.9024C106.963 69.8043 105.806 68.5121 104.842 67.0257C104.205 66.0503 103.66 64.8887 103.208 63.5409C102.74 62.1467 102.467 60.8683 102.387 59.7059C102.037 54.9631 103.448 50.8449 106.619 47.3512C108.553 45.2549 110.891 43.747 113.633 42.8273C117.026 41.6894 120.374 41.5747 123.677 42.4832C128.718 43.7914 132.296 46.6758 134.413 51.1363ZM132.164 55.0701C131.663 52.3427 130.28 50.3766 128.015 49.1717C126.292 48.1983 123.913 48.1175 120.876 48.9292C120.674 48.945 120.457 48.9919 120.225 49.0699C117.792 49.6789 115.012 50.6374 111.883 51.9453C110.226 52.708 109.033 53.4698 108.306 54.2307C106.496 55.9237 105.818 58.1416 106.272 60.8845C106.383 61.8299 106.663 62.744 107.115 63.6267C108.406 66.089 110.323 67.4883 112.866 67.8247C113.904 67.9933 115.315 67.8821 117.097 67.4913C119.313 67.0067 121.993 66.1336 125.137 64.8722C125.277 64.8254 125.393 64.7865 125.486 64.7553C128.63 63.4938 130.635 61.9942 131.5 60.2565C131.531 60.1944 131.577 60.1013 131.639 59.9772C132.364 58.4412 132.54 56.8055 132.164 55.0701ZM160.145 71.8992C161.764 75.8026 162.542 77.6613 162.48 77.4754L162.574 77.7542L140.614 85.1193C125.974 90.0294 118.639 92.5154 118.608 92.5775C118.345 92.8725 118.619 94.2283 119.43 96.6451L119.921 98.109L117.969 98.7637L116.017 99.4184L115.806 98.791L114.496 94.422C113.716 91.9432 112.89 89.48 112.018 87.0324L110.452 82.8267L110.241 82.1993L112.193 81.5446L114.145 80.89L114.636 82.3539C115.447 84.7706 116.046 86.0174 116.434 86.0942L153.382 73.7022C154.435 73.1422 154.937 72.3274 154.888 71.2579C154.856 70.6999 154.684 69.8787 154.372 68.7941L153.951 67.5393L155.903 66.8846L157.855 66.23L157.902 66.3694L160.145 71.8992ZM149.108 97.2635L151.467 102.909L151.56 103.188L139.5 107.233C130.623 110.21 125.891 111.901 125.302 112.305C124.853 112.507 124.559 112.865 124.421 113.376C124.112 114.152 124.223 115.407 124.753 117.143C125.205 118.49 125.703 119.513 126.247 120.209C127.226 121.432 128.591 122.266 130.344 122.713C131.492 123.052 132.763 123.142 134.158 122.985C134.607 122.937 137.071 122.189 141.548 120.739C146.66 119.024 149.386 117.981 149.727 117.608C149.773 117.592 149.851 117.515 149.959 117.375C150.454 116.692 150.389 115.343 149.765 113.329L149.344 112.075L151.296 111.42L153.248 110.765L157.85 121.941L158.037 122.499L145.976 126.544C137.843 129.271 133.715 130.682 133.591 130.775C132.491 131.351 131.966 132.173 132.014 133.243C132.046 133.801 132.218 134.622 132.53 135.707L132.951 136.961L130.999 137.616L129.047 138.271C128.938 137.945 128.16 136.009 126.711 132.462C125.139 128.698 124.345 126.793 124.329 126.746L126.421 126.045L128.512 125.344L127.464 124.764C125.075 123.498 123.25 121.68 121.99 119.31C121.524 118.536 121.064 117.242 120.611 115.43C120.595 115.228 120.564 115.058 120.517 114.918C119.734 110.734 120.798 107.663 123.709 105.705C124.421 105.207 126.21 104.452 129.076 103.439L133.886 101.826C139.819 99.7842 142.902 98.6469 143.134 98.4139C143.181 98.3983 143.273 98.2896 143.413 98.0879C144 97.3737 143.904 95.8547 143.125 93.531L142.868 92.7641L144.82 92.1095L146.772 91.4548L146.819 91.5942L149.108 97.2635ZM174.815 134.14L175.303 133.976L175.888 135.719L176.472 137.462L170.059 139.613L163.645 141.764L165.165 146.295L166.685 150.827L164.733 151.481L162.781 152.136L161.261 147.605L159.741 143.073L150.469 146.183C144.149 148.303 140.857 149.433 140.594 149.573C138.27 150.662 137.188 151.982 137.346 153.532C137.488 155.345 138.707 156.281 141.001 156.339C141.885 156.352 143.45 156.008 145.696 155.307L148.485 154.371L149.069 156.114L149.654 157.857L146.865 158.792C144.944 159.385 143.782 159.697 143.379 159.729C140.14 160.091 137.48 159.252 135.399 157.209C134.25 155.94 133.503 154.484 133.159 152.842C132.361 149.077 133.48 146.168 136.514 144.116C137.304 143.541 138.884 142.856 141.254 142.061C140.696 142.248 142.896 141.485 147.853 139.77L157.543 136.52L156.678 133.941L155.813 131.362L157.417 130.824L159.09 130.263L159.277 130.82C159.899 132.214 161.002 133.344 162.585 134.209C163.95 134.889 165.679 135.265 167.772 135.339C170.19 135.303 172.538 134.904 174.815 134.14ZM187.502 158.322C188.419 159.824 188.499 161.374 187.743 162.972C187.063 164.183 186.142 164.983 184.98 165.372C184.236 165.622 183.485 165.693 182.725 165.586C180.864 165.279 179.568 164.189 178.836 162.314C178.244 160.548 178.589 158.959 179.873 157.546C180.446 156.94 181.127 156.505 181.917 156.24C182.614 156.006 183.343 155.943 184.102 156.05C185.606 156.218 186.739 156.975 187.502 158.322ZM171.234 163.235C172.822 167.046 173.585 168.858 173.523 168.672L173.593 168.881L160.417 173.3C151.634 176.246 147.211 177.781 147.149 177.905C147.056 178.092 147.026 178.231 147.057 178.324C147.011 178.65 147.284 179.696 147.876 181.462L148.321 182.786L146.369 183.441L144.417 184.096L144.23 183.538L143.036 179.517C142.303 177.178 141.501 174.785 140.628 172.337C139.584 169.533 139.055 168.108 139.039 168.062L138.829 167.434L140.781 166.779L142.733 166.125L143.224 167.589C144.034 170.005 144.633 171.252 145.021 171.329C145.083 171.36 148.297 170.308 154.665 168.172C161.357 165.928 164.904 164.634 165.307 164.293C165.678 164.013 165.887 163.633 165.933 163.152C166.04 162.392 165.836 161.246 165.322 159.712L165.064 158.945L167.016 158.29L168.968 157.636L169.015 157.775L171.234 163.235ZM181.198 190.63C183.112 194.641 183.22 198.819 181.523 203.162C181.353 203.581 181.176 203.977 180.991 204.349C180.527 205.28 180.203 205.854 180.017 206.072C177.173 210.386 173.233 212.975 168.196 213.836C167.948 213.868 167.7 213.899 167.452 213.931C162.85 214.544 158.732 213.366 155.099 210.396C153.748 209.298 152.591 208.006 151.627 206.519C150.99 205.544 150.445 204.382 149.993 203.035C149.526 201.64 149.252 200.362 149.172 199.2C148.822 194.457 150.233 190.339 153.405 186.845C155.338 184.749 157.676 183.241 160.418 182.321C163.811 181.183 167.159 181.068 170.463 181.977C175.503 183.285 179.081 186.17 181.198 190.63ZM178.95 194.564C178.448 191.837 177.065 189.87 174.8 188.665C173.077 187.692 170.698 187.611 167.661 188.423C167.459 188.439 167.243 188.486 167.01 188.564C164.578 189.173 161.797 190.131 158.668 191.439C157.011 192.202 155.819 192.964 155.091 193.724C153.281 195.417 152.603 197.635 153.058 200.378C153.168 201.324 153.449 202.238 153.9 203.12C155.191 205.583 157.108 206.982 159.651 207.318C160.69 207.487 162.1 207.376 163.882 206.985C166.098 206.5 168.778 205.627 171.922 204.366C172.062 204.319 172.178 204.28 172.271 204.249C175.415 202.988 177.42 201.488 178.285 199.75C178.316 199.688 178.362 199.595 178.424 199.471C179.15 197.935 179.325 196.299 178.95 194.564ZM189.315 217.146C190.903 220.956 191.666 222.768 191.604 222.582L191.698 222.861L189.327 223.656L186.957 224.451L188.051 224.937C190.642 226.188 192.606 228.037 193.944 230.484C195.141 232.512 195.789 234.673 195.886 236.967C196.028 238.161 195.875 239.324 195.427 240.456C194.687 242.411 193.016 243.979 190.414 245.162C190.104 245.318 186.905 246.417 180.817 248.459C174.914 250.438 171.948 251.459 171.917 251.521C171.654 251.816 171.927 253.172 172.738 255.589L173.229 257.053L171.277 257.707L169.325 258.362L169.138 257.804L167.804 253.366C166.994 250.794 166.152 248.284 165.279 245.837L163.714 241.631L163.503 241.004L165.455 240.349L167.407 239.694L167.898 241.158C168.724 243.621 169.347 244.86 169.765 244.875L179.176 241.719C185.574 239.521 189.083 238.189 189.702 237.723C191.096 236.79 191.721 235.495 191.578 233.836C191.437 232.798 191.063 231.76 190.457 230.723C189.399 228.957 187.769 227.798 185.567 227.244C184.357 226.874 183.032 226.776 181.591 226.949C181.141 226.996 178.376 227.846 173.294 229.499L165.486 232.118C165.161 232.382 165.42 233.769 166.261 236.278L166.752 237.742L164.8 238.397L162.849 239.052L162.661 238.494L161.328 234.055C160.533 231.53 159.691 229.02 158.803 226.526L157.19 222.181L157.003 221.623L158.955 220.969L160.907 220.314L161.398 221.778C162.209 224.195 162.808 225.441 163.195 225.518L182.576 219.018C183.629 218.458 184.131 217.644 184.083 216.574C184.05 216.016 183.878 215.195 183.566 214.11L183.146 212.855L185.098 212.201L187.049 211.546L187.096 211.685L189.315 217.146ZM204.758 260.645C204.835 260.722 205.046 261.272 205.389 262.294C205.966 264.169 206.163 265.913 205.98 267.525L205.772 268.525L206.913 269.383L208.031 270.172L208.241 270.799C208.381 271.218 208.405 271.52 208.312 271.706L208.173 271.985L203.712 273.482L199.25 274.978L198.971 274.839L198.692 274.7L198.247 273.376L197.803 272.051L197.942 271.772C198.035 271.586 198.314 271.415 198.778 271.259C201.628 270.044 202.934 267.926 202.696 264.904C202.539 263.819 202.134 262.533 201.48 261.046C201.387 260.922 201.324 260.814 201.293 260.721C200.003 258.569 198.381 257.742 196.429 258.242C195.004 258.617 194.106 259.641 193.737 261.316C193.553 262.154 193.602 263.766 193.886 266.152C194.169 268.229 194.295 269.376 194.264 269.593C194.534 272.863 193.64 275.671 191.583 278.015C191.428 278.17 191.296 278.318 191.188 278.458C190.059 279.56 188.897 280.338 187.705 280.789C184.994 281.802 182.514 281.884 180.265 281.036C178.527 280.481 176.998 279.313 175.677 277.533C173.828 275.103 172.823 272.415 172.663 269.47C172.629 267.982 172.821 266.703 173.237 265.632L173.329 265.214L171.933 264.286C170.644 263.374 169.961 262.802 169.883 262.569C169.743 262.151 169.719 261.849 169.812 261.663L169.951 261.383L175.249 259.606C179.013 258.344 181.004 257.805 181.222 257.991C181.299 258.068 181.486 258.549 181.782 259.432C182.11 260.408 182.173 260.981 181.972 261.152C181.894 261.23 181.662 261.385 181.275 261.618C176.289 264.79 174.956 268.675 177.274 273.275C178.363 275.598 179.962 276.742 182.07 276.707C182.38 276.707 182.861 276.597 183.511 276.379C184.162 276.161 184.611 275.959 184.859 275.772C185.695 275.182 186.305 274.227 186.69 272.909C186.952 271.994 186.933 270.32 186.634 267.886C186.226 265.128 186.137 263.09 186.367 261.772C186.52 260.531 186.859 259.383 187.384 258.328C187.847 257.397 188.466 256.544 189.24 255.767C190.06 254.975 190.996 254.377 192.05 253.972C193.428 253.458 194.97 253.276 196.676 253.428C197.653 253.566 198.513 253.82 199.258 254.191C201.322 255.102 203.03 256.959 204.384 259.762C204.508 259.979 204.633 260.273 204.758 260.645Z" fill="#007CED"/>
</svg>
